<mxGraphModel dx="0" dy="0" grid="1" gridSize="10" guides="1" tooltips="1" connect="1" arrows="1" fold="1" page="0" pageScale="1" background="none" math="0" shadow="0">
  <root>
    <mxCell id="0" />
    <mxCell id="1" parent="0" />
    <mxCell id="node0" parent="1" vertex="1" value="&lt;p style=&quot;margin:0px;margin-top:4px;text-align:center;&quot;&gt;&lt;b&gt;GameController&lt;/b&gt;&lt;/p&gt;&lt;hr size=&quot;1&quot;/&gt;&lt;p style=&quot;margin:0 0 0 4px;line-height:1.6;&quot;&gt;+ GameController(): &lt;/p&gt;&lt;hr size=&quot;1&quot;/&gt;&lt;p style=&quot;margin:0 0 0 4px;line-height:1.6;&quot;&gt;- players: ArrayList&amp;lt;Player&amp;gt;&lt;br/&gt;- playersNumber: int&lt;/p&gt;&lt;hr size=&quot;1&quot;/&gt;&lt;p style=&quot;margin:0 0 0 4px;line-height:1.6;&quot;&gt;+ sendChatMessage(Message): Message&lt;br/&gt;+ placeCard(String, int, boolean, int, int): boolean&lt;br/&gt;+ addPlayer(Player, VirtualView): void&lt;br/&gt;+ drawCard(String, int): boolean&lt;br/&gt;+ setStarterCardSide(String, boolean): void&lt;br/&gt;+ disconnection(String): void&lt;br/&gt;+ setSecretAchievement(String, AchievementCard): void&lt;br/&gt;+ calculateEndPoints(): boolean&lt;br/&gt;- countdown(): void&lt;br/&gt;+ reconnection(String, VirtualView, VirtualView): void&lt;/p&gt;&lt;hr size=&quot;1&quot;/&gt;&lt;p style=&quot;margin:0 0 0 4px;line-height:1.6;&quot;&gt; players: ArrayList&amp;lt;Player&amp;gt;&lt;br/&gt; wholeChat: ArrayList&amp;lt;Message&amp;gt;&lt;br/&gt; playersNumber: int&lt;/p&gt;" style="verticalAlign=top;align=left;overflow=fill;fontSize=14;fontFamily=Helvetica;html=1;rounded=0;shadow=0;comic=0;labelBackgroundColor=none;strokeWidth=1;">
      <mxGeometry x="-85" y="-14" width="381" height="426" as="geometry" />
    </mxCell>
  </root>
</mxGraphModel>